<svg xmlns="http://www.w3.org/2000/svg" viewBox="0 0 512 512"><circle cx="243.172" cy="273.26" r="229.409" fill="#fddf6d"></circle><path d="M292.329 468.801c-126.699 0-229.408-102.709-229.408-229.408 0-67.69 29.323-128.525 75.953-170.515C64.604 106.852 13.76 184.117 13.76 273.259c0 126.699 102.709 229.408 229.408 229.408 59.009 0 112.807-22.286 153.455-58.892-31.29 15.999-66.737 25.026-104.294 25.026z" fill="#fcc56b"></path><g fill="#ff0"><path d="M166.174 18.24l27.935 56.601a15.975 15.975 0 0 0 12.03 8.74l62.463 9.076c13.106 1.904 18.338 18.01 8.855 27.254l-45.199 44.058a15.98 15.98 0 0 0-4.595 14.142l10.67 62.21c2.239 13.052-11.462 23.006-23.184 16.844l-55.869-29.372a15.972 15.972 0 0 0-14.87 0l-55.869 29.372c-11.722 6.162-25.422-3.792-23.184-16.844l10.67-62.21a15.98 15.98 0 0 0-4.595-14.142l-45.199-44.058c-9.483-9.244-4.251-25.349 8.855-27.254l62.463-9.076a15.978 15.978 0 0 0 12.03-8.74l27.935-56.601c5.862-11.876 22.797-11.876 28.658 0zM422.946 93.963l18.112 36.697a10.36 10.36 0 0 0 7.8 5.667l40.498 5.885c8.496 1.234 11.89 11.677 5.741 17.67l-29.305 28.564a10.363 10.363 0 0 0-2.979 9.17l6.917 40.333c1.451 8.463-7.431 14.916-15.031 10.92l-36.222-19.044a10.357 10.357 0 0 0-9.641 0l-36.222 19.044c-7.599 3.996-16.483-2.458-15.031-10.92l6.917-40.333a10.363 10.363 0 0 0-2.979-9.17l-29.305-28.564c-6.148-5.993-2.755-16.435 5.741-17.67l40.498-5.885a10.356 10.356 0 0 0 7.8-5.667l18.112-36.697c3.8-7.701 14.78-7.701 18.579 0z"></path></g><g fill="#fc4c59"><path d="M157.705 86.771l11.423 23.146a6.531 6.531 0 0 0 4.92 3.574l25.543 3.712c5.359.779 7.5 7.364 3.621 11.144l-18.484 18.017a6.532 6.532 0 0 0-1.879 5.784l4.363 25.44c.916 5.337-4.687 9.407-9.481 6.888l-22.846-12.011c-1.904-1-4.177-1-6.081 0l-22.846 12.011c-4.793 2.52-10.395-1.55-9.481-6.888l4.363-25.44a6.54 6.54 0 0 0-1.879-5.784l-18.484-18.017c-3.877-3.78-1.738-10.365 3.621-11.144l25.543-3.712a6.538 6.538 0 0 0 4.92-3.574l11.423-23.146c2.399-4.855 9.324-4.855 11.721 0zM416.666 144.781l5.867 11.889a3.352 3.352 0 0 0 2.527 1.835l13.119 1.906c2.753.399 3.851 3.783 1.86 5.724l-9.493 9.256a3.357 3.357 0 0 0-.966 2.97l2.241 13.067c.47 2.741-2.408 4.832-4.869 3.538l-11.734-6.17a3.355 3.355 0 0 0-3.123 0l-11.734 6.17c-2.463 1.294-5.34-.796-4.869-3.538l2.241-13.067a3.35 3.35 0 0 0-.966-2.97l-9.493-9.254c-1.992-1.941-.892-5.325 1.86-5.724l13.119-1.906a3.357 3.357 0 0 0 2.527-1.835l5.867-11.889c1.232-2.496 4.788-2.496 6.019-.002z"></path></g><path d="M289.948 424.751c-51.285 0-92.86-41.575-92.86-92.86h185.72c0 51.285-41.573 92.86-92.86 92.86z" fill="#7f184c"></path><path d="M219.746 331.891v14.495c0 6.112 4.955 11.066 11.066 11.066h118.272c6.112 0 11.066-4.955 11.066-11.066v-14.495H219.746z" fill="#f2f2f2"></path><path d="M291.898 386.227c-25.101-11.662-52.956-9.967-75.544 2.128 16.973 22.122 43.664 36.397 73.702 36.397a92.513 92.513 0 0 0 37.212-7.78c-8.36-12.936-20.347-23.766-35.37-30.745z" fill="#fc4c59"></path><path d="M501.611 166.563c5.407-5.27 7.317-13.005 4.984-20.186-2.334-7.181-8.426-12.317-15.898-13.403L450.2 127.09a1.028 1.028 0 0 1-.773-.562L431.316 89.83c-3.342-6.771-10.108-10.976-17.657-10.976-7.551 0-14.318 4.206-17.659 10.976l-.004.006c-21.01-17.548-44.618-31.213-70.343-40.684-4.838-1.783-10.201.697-11.982 5.534-1.782 4.837.697 10.201 5.534 11.982 25.12 9.248 48.05 22.845 68.268 40.438l-9.584 19.419a1.023 1.023 0 0 1-.773.562l-40.498 5.885c-7.472 1.086-13.563 6.222-15.897 13.402-2.333 7.181-.423 14.916 4.984 20.186l29.305 28.565c.241.235.352.576.296.908l-6.919 40.333c-1.277 7.441 1.725 14.822 7.832 19.26 3.452 2.509 7.491 3.783 11.558 3.783 3.13 0 6.275-.754 9.182-2.282l36.222-19.044c.299-.158.655-.157.954 0l36.222 19.044a19.597 19.597 0 0 0 12.42 2c.299 4.7.467 9.412.467 14.13 0 121.351-98.726 220.075-220.075 220.075S23.093 394.61 23.093 273.259c0-40.087 10.752-78.912 31.182-112.982l10.643 10.375a6.643 6.643 0 0 1 1.911 5.882l-10.67 62.21c-1.64 9.567 2.217 19.052 10.069 24.756 4.436 3.224 9.626 4.862 14.853 4.862 4.023 0 8.066-.971 11.803-2.934l55.869-29.372a6.646 6.646 0 0 1 6.184 0l55.869 29.372c8.59 4.516 18.806 3.778 26.655-1.926 7.852-5.704 11.709-15.191 10.069-24.756l-10.67-62.21a6.648 6.648 0 0 1 1.911-5.883l45.2-44.058c6.948-6.774 9.404-16.715 6.403-25.945-2.998-9.229-10.827-15.832-20.432-17.227l-62.464-9.076a6.65 6.65 0 0 1-5.004-3.635l-6.168-12.498a221.352 221.352 0 0 1 46.859-5.028 9.334 9.334 0 0 0 0-18.666 239.785 239.785 0 0 0-55.36 6.469L174.539 14.11C170.248 5.407 161.55 0 151.845 0s-18.402 5.407-22.697 14.109l-27.935 56.602a6.643 6.643 0 0 1-5.004 3.635l-62.463 9.078c-9.604 1.396-17.433 7.996-20.432 17.227-2.999 9.229-.545 19.172 6.405 25.946l20.85 20.324c-23.665 37.86-36.142 81.371-36.142 126.338C4.427 404.902 111.525 512 243.168 512s238.741-107.098 238.741-238.741c0-16.566-1.721-33.106-5.091-49.189l-4.807-28.033a1.032 1.032 0 0 1 .295-.91l29.305-28.564zM31.066 106.417c.383-1.182 1.675-3.987 5.364-4.523l62.463-9.076a25.297 25.297 0 0 0 19.057-13.846l27.935-56.601c1.65-3.344 4.717-3.704 5.959-3.704 1.243 0 4.309.361 5.959 3.704l27.935 56.601a25.304 25.304 0 0 0 19.057 13.846l62.463 9.076c3.691.536 4.981 3.342 5.366 4.523s.988 4.21-1.682 6.812l-45.199 44.058a25.312 25.312 0 0 0-7.279 22.403l10.67 62.21c.631 3.675-1.639 5.77-2.644 6.499-1.004.729-3.698 2.24-6.998.505l-55.869-29.372a25.296 25.296 0 0 0-23.556 0l-55.869 29.372c-3.299 1.735-5.993.224-6.998-.506-1.005-.729-3.274-2.825-2.644-6.499l10.67-62.212a25.305 25.305 0 0 0-7.279-22.403l-45.199-44.055c-2.67-2.603-2.066-5.631-1.682-6.812zm428.212 75.345a19.692 19.692 0 0 0-5.663 17.43l4.542 26.482c.035.352.085.706.161 1.059.051.236.093.474.143.711l2.072 12.081c.034.204.107.628-.408 1.003-.514.375-.9.174-1.081.078l-36.222-19.042a19.681 19.681 0 0 0-18.325 0l-36.222 19.044c-.183.097-.567.296-1.081-.078-.515-.375-.442-.8-.408-1.004l6.92-40.336a19.69 19.69 0 0 0-5.664-17.428l-29.305-28.565c-.149-.144-.458-.445-.26-1.053.197-.607.623-.669.827-.699l40.498-5.885a19.694 19.694 0 0 0 14.828-10.772l12.712-25.758c.035-.07.071-.139.103-.209l5.295-10.729c.091-.185.282-.572.921-.572.638 0 .829.387.92.572l18.112 36.697a19.693 19.693 0 0 0 14.827 10.771l40.498 5.885c.205.03.632.092.829.699.197.607-.112.907-.26 1.053l-29.309 28.565z"></path><path d="M187.756 331.891c0 56.349 45.843 102.193 102.193 102.193s102.193-45.843 102.193-102.193a9.333 9.333 0 0 0-9.333-9.333H197.087c-5.153 0-9.331 4.179-9.331 9.333zm185.202 9.332c-4.654 41.681-40.106 74.195-83.01 74.195s-78.356-32.514-83.01-74.195h166.02z"></path><circle cx="288.13" cy="48.58" r="9.333"></circle></svg>