<?xml version="1.0"?>
<svg xmlns="http://www.w3.org/2000/svg" viewBox="0 0 32 32">
    <path fill='#2196f3' style="text-indent:0;text-align:start;line-height:normal;text-transform:none;block-progression:tb;-inkscape-font-specification:Bitstream Vera Sans" d="M 6 3 L 6 4 L 6 10 L 8 10 L 8 5 L 24 5 L 24 10 L 26 10 L 26 4 L 26 3 L 25 3 L 7 3 L 6 3 z M 10.59375 12 C 9.2104167 12 8.09375 13.116667 8.09375 14.5 L 8.09375 17.5 C 8.09375 18.883333 9.2104167 20 10.59375 20 L 12.09375 20 L 13.09375 20 L 13.09375 19 L 13.09375 17 L 13.09375 16 L 12.09375 16 L 11.09375 16 L 11.09375 17 L 11.09375 18 L 10.59375 18 C 10.377083 18 10.09375 17.716667 10.09375 17.5 L 10.09375 14.5 C 10.09375 14.283333 10.377083 14 10.59375 14 C 10.810417 14 11.09375 14.283333 11.09375 14.5 L 11.09375 15 L 13.09375 15 L 13.09375 14.5 C 13.09375 13.116667 11.977083 12 10.59375 12 z M 15 12 L 15 20 L 17 20 L 17 12 L 15 12 z M 19 12 L 19 13 L 19 20 L 21 20 L 21 17 L 23 17 L 23 15 L 21 15 L 21 14 L 24 14 L 24 12 L 20 12 L 19 12 z M 6 22 L 6 28 L 6 29 L 7 29 L 25 29 L 26 29 L 26 28 L 26 22 L 24 22 L 24 27 L 8 27 L 8 22 L 6 22 z"/>
</svg>
