<svg xmlns="http://www.w3.org/2000/svg" width="300" height="300" viewBox="0 0 300 300" fill="none">
<circle cx="149.995" cy="150" r="128" fill="url(#paint0_radial)"/>
<g style="mix-blend-mode:screen">
<path d="M149.386 31.4492C83.7536 31.4492 30.5284 84.6574 30.5284 150.29C30.4965 176.502 39.1688 201.982 55.1841 222.732C44.8076 204.721 39.3606 184.292 39.3917 163.505C39.3917 97.8727 92.5999 44.6645 158.233 44.6645C195.141 44.6351 229.961 61.7854 252.435 91.0631C231.239 54.1722 191.933 31.4334 149.386 31.4492Z" fill="url(#paint1_radial)"/>
</g>
<g filter="url(#filter0_di)">
<path d="M93.995 112.967L111.276 119.09C114.418 120.204 115.611 124.021 113.663 126.726L102.946 141.601" stroke="url(#paint2_linear)" stroke-width="12" stroke-linecap="round"/>
</g>
<g filter="url(#filter1_di)">
<path d="M186.697 112.763L169.509 106.385C166.384 105.225 165.247 101.39 167.235 98.7145L178.171 84" stroke="url(#paint3_linear)" stroke-width="12" stroke-linecap="round"/>
</g>
<path d="M248.003 59.2195C264.172 57.2493 278.878 68.7637 280.842 84.9381C282.812 101.107 271.304 115.812 255.129 117.782C238.955 119.753 193.723 101.484 193.009 95.6266C192.302 89.775 231.835 61.1956 248.003 59.2195Z" fill="url(#paint4_linear)"/>
<path d="M56.0415 187.242C42.5132 196.313 24.1896 192.697 15.1209 179.16C6.0497 165.632 9.66089 147.311 23.1944 138.237C36.728 129.163 85.331 124.994 88.6173 129.895C91.8956 134.794 69.5671 178.165 56.0415 187.242Z" fill="url(#paint5_linearr)"/>
<path d="M180.221 256.057C136.766 267.701 90.9191 249.313 81.4597 214.01C77.002 197.373 88.3596 180.457 105.804 177.752L125.078 174.763C146.366 171.462 167.244 165.868 187.33 158.083L205.516 151.034C221.976 144.655 240.27 153.626 244.728 170.262C254.187 205.565 223.677 244.414 180.221 256.057Z" fill="url(#paint6_radial)"/>
<path d="M103.875 198.208C99.9321 196.135 101.625 191.086 106.058 190.645C117.176 189.539 135.792 186.634 161.044 179.057C186.292 171.486 203.43 163.669 213.32 158.474C217.264 156.402 221.457 159.687 219.304 163.587C213.21 174.629 199.145 191.195 167.526 200.679C135.901 210.167 115.039 204.074 103.875 198.208Z" fill="white"/>
<path d="M145.646 246.95C141.46 245.427 142.931 240.506 147.343 239.891C154.109 238.947 163.631 237.099 175.653 233.492C187.671 229.889 196.635 226.192 202.802 223.257C206.825 221.343 210.761 224.642 208.104 228.218C203.499 234.413 195.013 241.864 179.552 246.502C164.087 251.142 152.9 249.589 145.646 246.95Z" fill="white"/>
<defs>
<filter id="filter0_di" x="85.4775" y="100.477" width="41.8928" height="50.6409" filterUnits="userSpaceOnUse" color-interpolation-filters="sRGB">
<feFlood flood-opacity="0" result="BackgroundImageFix"/>
<feColorMatrix in="SourceAlpha" type="matrix" values="0 0 0 0 0 0 0 0 0 0 0 0 0 0 0 0 0 0 127 0"/>
<feOffset dy="1"/>
<feGaussianBlur stdDeviation="0.5"/>
<feColorMatrix type="matrix" values="0 0 0 0 1 0 0 0 0 1 0 0 0 0 1 0 0 0 0.35 0"/>
<feBlend mode="normal" in2="BackgroundImageFix" result="effect1_dropShadow"/>
<feBlend mode="normal" in="SourceGraphic" in2="effect1_dropShadow" result="shape"/>
<feColorMatrix in="SourceAlpha" type="matrix" values="0 0 0 0 0 0 0 0 0 0 0 0 0 0 0 0 0 0 127 0" result="hardAlpha"/>
<feOffset dy="1"/>
<feGaussianBlur stdDeviation="1"/>
<feComposite in2="hardAlpha" operator="arithmetic" k2="-1" k3="1"/>
<feColorMatrix type="matrix" values="0 0 0 0 0 0 0 0 0 0 0 0 0 0 0 0 0 0 0.25 0"/>
<feBlend mode="normal" in2="shape" result="effect2_innerShadow"/>
</filter>
<filter id="filter1_di" x="153.734" y="76.5417" width="41.421" height="50.4157" filterUnits="userSpaceOnUse" color-interpolation-filters="sRGB">
<feFlood flood-opacity="0" result="BackgroundImageFix"/>
<feColorMatrix in="SourceAlpha" type="matrix" values="0 0 0 0 0 0 0 0 0 0 0 0 0 0 0 0 0 0 127 0"/>
<feOffset dy="1"/>
<feGaussianBlur stdDeviation="0.5"/>
<feColorMatrix type="matrix" values="0 0 0 0 1 0 0 0 0 1 0 0 0 0 1 0 0 0 0.35 0"/>
<feBlend mode="normal" in2="BackgroundImageFix" result="effect1_dropShadow"/>
<feBlend mode="normal" in="SourceGraphic" in2="effect1_dropShadow" result="shape"/>
<feColorMatrix in="SourceAlpha" type="matrix" values="0 0 0 0 0 0 0 0 0 0 0 0 0 0 0 0 0 0 127 0" result="hardAlpha"/>
<feOffset dy="1"/>
<feGaussianBlur stdDeviation="1"/>
<feComposite in2="hardAlpha" operator="arithmetic" k2="-1" k3="1"/>
<feColorMatrix type="matrix" values="0 0 0 0 0 0 0 0 0 0 0 0 0 0 0 0 0 0 0.25 0"/>
<feBlend mode="normal" in2="shape" result="effect2_innerShadow"/>
</filter>
<radialGradient id="paint0_radial" cx="0" cy="0" r="1" gradientUnits="userSpaceOnUse" gradientTransform="translate(119.661 83.0631) scale(200.563)">
<stop stop-color="#F7E135"/>
<stop offset="0.5" stop-color="#FCBC27"/>
<stop offset="1" stop-color="#FF7E2C"/>
</radialGradient>
<radialGradient id="paint1_radial" cx="0" cy="0" r="1" gradientUnits="userSpaceOnUse" gradientTransform="translate(35.1336 -31.7998) scale(222.199 191.536)">
<stop stop-color="white"/>
<stop offset="1"/>
</radialGradient>
<linearGradient id="paint2_linear" x1="110.439" y1="118.251" x2="98.5302" y2="125.163" gradientUnits="userSpaceOnUse">
<stop/>
<stop offset="1" stop-color="#312396"/>
</linearGradient>
<linearGradient id="paint3_linear" x1="170.333" y1="107.236" x2="182.343" y2="100.502" gradientUnits="userSpaceOnUse">
<stop/>
<stop offset="1" stop-color="#312396"/>
</linearGradient>
<linearGradient id="paint4_linear" x1="212.33" y1="91.9943" x2="281.061" y2="88.4651" gradientUnits="userSpaceOnUse">
<stop stop-color="#2BDADA"/>
<stop offset="1" stop-color="#85EDED" stop-opacity="0"/>
</linearGradient>
<linearGradient id="paint5_linearr" x1="73.03" y1="141.875" x2="13.3296" y2="176.114" gradientUnits="userSpaceOnUse">
<stop stop-color="#2BDADA"/>
<stop offset="1" stop-color="#85EDED" stop-opacity="0"/>
</linearGradient>
<radialGradient id="paint6_radial" cx="0" cy="0" r="1" gradientUnits="userSpaceOnUse" gradientTransform="translate(185.152 272.209) rotate(-15) scale(202.669 113.865)">
<stop stop-color="#372396"/>
<stop offset="1"/>
</radialGradient>
</defs>
</svg>