<svg width="300" height="300" viewBox="0 0 300 300" fill="none" xmlns="http://www.w3.org/2000/svg">
<circle cx="150" cy="150" r="128" fill="url(#paint0_lineard)"/>
<g style="mix-blend-mode:screen">
<path d="M149.391 31.4492C83.7585 31.4492 30.5333 84.6574 30.5333 150.29C30.5014 176.502 39.1737 201.982 55.1889 222.732C44.8125 204.721 39.3655 184.292 39.3966 163.505C39.3966 97.8727 92.6048 44.6645 158.237 44.6645C195.146 44.6351 229.966 61.7854 252.44 91.0631C231.244 54.1722 191.938 31.4334 149.391 31.4492Z" fill="url(#paint1_radial)"/>
</g>
<circle cx="187" cy="126" r="15" fill="url(#paint2_linear)"/>
<path d="M230.262 91.0854C230.023 91.3236 229.762 91.5389 229.483 91.7282C214.066 102.161 195.469 106.835 176.951 104.932C174.108 104.536 172.087 101.96 172.38 99.1034C172.672 96.2469 175.173 94.1341 178.038 94.3224C194.06 95.9718 210.152 91.9298 223.492 82.9048C225.768 81.3786 228.829 81.8236 230.576 83.9344C232.322 86.0451 232.187 89.1357 230.262 91.0854V91.0854Z" fill="url(#paint3_linear)"/>
<circle r="15" transform="matrix(-1 0 0 1 113.801 126.347)" fill="url(#paint4_lineard)"/>
<path d="M70.5387 91.0854C70.7778 91.3236 71.0387 91.5389 71.3181 91.7282C86.7352 102.161 105.332 106.835 123.849 104.932C126.693 104.536 128.714 101.96 128.421 99.1034C128.129 96.2469 125.628 94.1341 122.763 94.3224C106.741 95.9718 90.6492 91.9298 77.3085 82.9048C75.0332 81.3786 71.9718 81.8236 70.2251 83.9344C68.4784 86.0451 68.6139 89.1357 70.5387 91.0854V91.0854Z" fill="url(#paint5_lineard)"/>
<path d="M248.185 252H52.8148C42.4629 252 34 243.08 34 232.169V181.831C34 170.92 42.4629 162 52.8148 162H248.185C258.537 162 267 170.92 267 181.831V232.169C267 243.08 258.537 252 248.185 252Z" fill="url(#paint6_radial)"/>
<path d="M66.7727 201.583H60.0709C57.4984 201.583 56.3268 199.716 56.3268 197.856C56.3268 195.996 57.4984 194.137 60.0709 194.137H67.8541L69.5665 181.657C69.9515 178.868 71.1231 177.938 73.4581 177.938C75.326 177.938 77.0466 179.17 77.0466 181.037C77.0466 182.204 77.0466 181.657 76.8909 182.905L75.3342 194.145H82.8143L84.5266 181.665C84.9117 178.876 86.0833 177.946 88.4183 177.946C90.2862 177.946 92.0067 179.178 92.0067 181.046C92.0067 182.212 92.0067 181.665 91.8511 182.913L90.2862 194.153H96.988C99.5606 194.153 100.724 196.021 100.724 197.872C100.724 199.732 99.5524 201.6 96.988 201.6H89.1966L87.9513 210.433H94.653C97.2256 210.433 98.389 212.301 98.389 214.16C98.389 216.02 97.2174 217.88 94.653 217.88H86.8616L85.1493 230.359C84.756 233.157 83.5845 234.078 81.2495 234.078C79.3815 234.078 77.661 232.847 77.661 230.979C77.661 229.813 77.661 230.359 77.8167 229.111L79.3815 217.872H71.9096L70.1973 230.351C69.8041 233.149 68.6407 234.07 66.2975 234.07C64.4295 234.07 62.709 232.839 62.709 230.971C62.709 229.804 62.709 230.351 62.8647 229.103L64.4213 217.863H57.7359C55.1716 217.863 54 215.996 54 214.144C54 212.276 55.1716 210.417 57.7359 210.417H65.5274L66.7727 201.583V201.583ZM73.0812 210.417H80.4794L81.7247 201.583H74.3265L73.0812 210.417ZM110.9 190.026C110.9 183.28 115.963 177.465 122.894 177.465C129.825 177.465 134.888 183.28 134.888 190.026C134.888 196.771 129.825 202.513 122.894 202.513C115.955 202.521 110.9 196.779 110.9 190.026ZM126.941 190.026C126.941 187.546 125.458 185.377 122.894 185.377C120.321 185.377 118.838 187.554 118.838 190.026C118.838 192.513 120.321 194.61 122.894 194.61C125.458 194.61 126.941 192.513 126.941 190.026ZM145.867 179.488C146.883 177.555 147.661 177.008 149.455 177.008C151.872 177.008 154.051 178.941 154.051 181.347C154.051 181.967 154.051 182.514 153.429 183.672L127.261 232.439C126.089 234.062 125.622 234.992 123.754 234.992C121.73 234.992 119.314 233.059 119.314 230.734C119.314 229.568 119.781 228.491 120.092 227.863L145.867 179.488ZM138.313 222.056C138.313 215.311 143.376 209.495 150.307 209.495C157.238 209.495 162.302 215.311 162.302 222.056C162.302 228.793 157.238 234.535 150.307 234.535C143.368 234.543 138.313 228.793 138.313 222.056ZM154.355 222.056C154.355 219.568 152.872 217.407 150.299 217.407C147.726 217.407 146.244 219.576 146.244 222.056C146.244 224.535 147.726 226.632 150.299 226.632C152.872 226.632 154.355 224.535 154.355 222.056ZM174.722 228.491C174.722 225.155 177.45 222.439 180.793 222.439C184.144 222.439 186.872 225.155 186.872 228.491C186.872 231.819 184.144 234.535 180.793 234.535C177.45 234.543 174.722 231.827 174.722 228.491ZM175.189 182.742C175.189 179.488 177.598 177.473 180.793 177.473C183.914 177.473 186.405 179.569 186.405 182.742V212.594C186.405 215.775 183.914 217.863 180.793 217.863C177.598 217.863 175.189 215.849 175.189 212.594V182.742ZM241.371 235C239.839 235 238.88 234.568 237.84 233.401L231.908 226.958L231.318 227.496C225.567 232.757 220.602 234.992 214.736 234.992C205.65 234.992 196.474 229.837 196.474 218.32C196.474 209.291 203.577 203.892 207.813 201.477L208.772 200.931L207.993 200.131C204.511 196.502 203.086 193.5 203.086 189.781C203.086 180.997 211.139 177 218.619 177C224.879 177 233.694 180.695 233.694 188.892C233.694 196.649 226.46 201.135 224.248 202.326L223.306 202.831L232.818 213.769L236.455 209.397C238.479 206.975 239.659 205.955 241.748 205.955C243.427 205.955 245.222 207.456 245.222 210.221C245.222 212.293 243.157 214.992 241.133 217.358L238.7 220.09L244.484 226.925C245.558 228.198 246 228.875 246 230.416C246.008 232.822 243.796 235 241.371 235V235ZM213.13 206.665C209.624 209.006 206.052 212.089 206.052 217.195C206.052 222.545 209.55 225.995 214.974 225.995C219.496 225.995 222.421 224.022 225.419 221.053L226.001 220.49L213.712 206.273L213.13 206.665V206.665ZM218.628 184.553C216.334 184.553 213.138 186.421 213.138 189.463C213.138 192.301 214.539 194.031 217.513 197.04L217.931 197.464L218.447 197.195C222.519 195.075 224.584 192.685 224.584 190.107C224.592 186.29 221.503 184.553 218.628 184.553V184.553Z" fill="white"/>
<defs>
<linearGradient id="paint0_lineard" x1="142" y1="22" x2="142" y2="278" gradientUnits="userSpaceOnUse">
<stop offset="0.0249653" stop-color="#F2323F"/>
<stop offset="1" stop-color="#F76F34"/>
</linearGradient>
<radialGradient id="paint1_radial" cx="0" cy="0" r="1" gradientUnits="userSpaceOnUse" gradientTransform="translate(35.1384 -31.7998) scale(222.199 191.536)">
<stop stop-color="white"/>
<stop offset="1"/>
</radialGradient>
<linearGradient id="paint2_linear" x1="202.009" y1="141" x2="202.009" y2="111" gradientUnits="userSpaceOnUse">
<stop stop-color="#372396"/>
<stop offset="1"/>
</linearGradient>
<linearGradient id="paint3_linear" x1="231.521" y1="120.083" x2="238.163" y2="77.0164" gradientUnits="userSpaceOnUse">
<stop/>
<stop offset="1" stop-color="#372396"/>
</linearGradient>
<linearGradient id="paint4_lineard" x1="30.0086" y1="30" x2="30.0086" y2="0" gradientUnits="userSpaceOnUse">
<stop stop-color="#372396"/>
<stop offset="1"/>
</linearGradient>
<linearGradient id="paint5_lineard" x1="69.2802" y1="120.083" x2="62.6378" y2="77.0164" gradientUnits="userSpaceOnUse">
<stop/>
<stop offset="1" stop-color="#372396"/>
</linearGradient>
<radialGradient id="paint6_radial" cx="0" cy="0" r="1" gradientUnits="userSpaceOnUse" gradientTransform="translate(151.302 267.976) scale(279.374 107.784)">
<stop stop-color="#372396"/>
<stop offset="1"/>
</radialGradient>
</defs>
</svg>
