<svg width="300" height="300" viewBox="0 0 300 300" fill="none" xmlns="http://www.w3.org/2000/svg">
<circle cx="150" cy="154" r="128" fill="url(#paint0_radial)"/>
<g filter="url(#filter0_f)">
<circle cx="87.5" cy="168.5" r="56.5" fill="url(#paint1_radiall)"/>
</g>
<g filter="url(#filter1_f)">
<circle cx="214.5" cy="168.5" r="56.5" fill="url(#paint2_radial)"/>
</g>
<g style="mix-blend-mode:screen">
<path d="M149.391 35.4492C83.7585 35.4492 30.5333 88.6574 30.5333 154.29C30.5014 180.502 39.1737 205.982 55.1889 226.732C44.8125 208.721 39.3655 188.292 39.3966 167.505C39.3966 101.873 92.6048 48.6645 158.237 48.6645C195.146 48.6351 229.966 65.7854 252.44 95.0631C231.244 58.1722 191.938 35.4334 149.391 35.4492Z" fill="url(#paint3_radial)"/>
</g>
<path d="M257 122L260.235 128.19C260.735 129.145 261.53 129.914 262.503 130.381L269 133.5L262.503 136.619C261.53 137.086 260.735 137.855 260.235 138.81L257 145L253.765 138.81C253.265 137.855 252.47 137.086 251.497 136.619L245 133.5L251.497 130.381C252.47 129.914 253.265 129.145 253.765 128.19L257 122Z" fill="#FCE48D"/>
<path d="M76.5 35L79.8791 41.2058C80.3939 42.1512 81.2 42.9052 82.1776 43.3557L89 46.5L82.1776 49.6443C81.2 50.0948 80.3939 50.8488 79.8791 51.7942L76.5 58L73.1209 51.7942C72.6061 50.8488 71.8 50.0948 70.8224 49.6443L64 46.5L70.8224 43.3557C71.8 42.9052 72.6061 42.1512 73.1209 41.2058L76.5 35Z" fill="#FCE48D"/>
<path d="M51.5 97L54.6443 103.822C55.0948 104.8 55.8488 105.606 56.7942 106.121L63 109.5L56.7942 112.879C55.8488 113.394 55.0948 114.2 54.6443 115.178L51.5 122L48.3557 115.178C47.9052 114.2 47.1512 113.394 46.2058 112.879L40 109.5L46.2058 106.121C47.1512 105.606 47.9052 104.8 48.3557 103.822L51.5 97Z" fill="#FCE48D"/>
<path d="M201.5 35L204.879 41.2058C205.394 42.1512 206.2 42.9052 207.178 43.3557L214 46.5L207.178 49.6443C206.2 50.0948 205.394 50.8488 204.879 51.7942L201.5 58L198.121 51.7942C197.606 50.8488 196.8 50.0948 195.822 49.6443L189 46.5L195.822 43.3557C196.8 42.9052 197.606 42.1512 198.121 41.2058L201.5 35Z" fill="#FCE48D"/>
<path d="M150.316 183.944C122.55 183.944 104.118 180.705 81.3335 176.277C76.1194 175.285 66 176.277 66 191.61C66 222.268 101.226 260.592 150.316 260.592C199.405 260.592 234.631 222.268 234.631 191.61C234.631 176.277 224.502 175.275 219.298 176.277C196.513 180.705 178.09 183.944 150.316 183.944Z" fill="url(#paint4_radial)"/>
<path opacity="0.4" d="M139.703 62.8151C133.154 44.24 112.837 34.4902 94.295 41.0384C83.042 45.0117 75.075 54.1121 71.972 64.7559C62.8919 58.4215 50.9985 56.3508 39.7607 60.3241C21.2344 66.88 11.491 87.2584 18.04 105.833C18.9701 108.462 20.2052 110.899 21.6385 113.153C36.5129 140.523 79.4893 159.763 105.51 160C125.614 143.442 147.03 101.432 141.48 70.7769C141.19 68.1179 140.618 65.4435 139.703 62.8151V62.8151ZM160.288 62.8151C166.837 44.24 187.163 34.4902 205.697 41.0384C216.95 45.0117 224.917 54.1121 228.027 64.7559C237.107 58.4215 249.001 56.3508 260.239 60.3241C278.765 66.88 288.501 87.2584 281.967 105.833C281.029 108.462 279.802 110.899 278.361 113.153C263.486 140.523 220.51 159.763 194.482 160C174.377 143.442 152.969 101.432 158.519 70.7769C158.802 68.1179 159.373 65.4435 160.288 62.8151V62.8151Z" fill="#DD2E44"/>
<path d="M139.012 43.3896C132.023 23.5864 110.34 13.192 90.5536 20.1732C78.5449 24.4092 70.0427 34.1112 66.7313 45.4587C57.0413 38.7056 44.3491 36.498 32.3566 40.734C12.586 47.7234 2.18816 69.449 9.17701 89.2522C10.1696 92.0545 11.4876 94.6531 13.0172 97.0562C28.8906 126.236 74.7535 146.747 102.522 147C123.976 129.347 146.831 84.5601 140.908 51.8779C140.598 49.043 139.988 46.1919 139.012 43.3896V43.3896ZM160.979 43.3896C167.968 23.5864 189.659 13.192 209.437 20.1732C221.446 24.4092 229.948 34.1112 233.268 45.4587C242.958 38.7056 255.65 36.498 267.643 40.734C287.413 47.7234 297.803 69.449 290.83 89.2522C289.83 92.0545 288.52 94.6531 286.982 97.0562C271.109 126.236 225.246 146.747 197.469 147C176.015 129.347 153.169 84.5601 159.092 51.8779C159.393 49.043 160.003 46.1919 160.979 43.3896V43.3896Z" fill="url(#paint5_linear)"/>
<defs>
<filter id="filter0_f" x="27" y="108" width="121" height="121" filterUnits="userSpaceOnUse" color-interpolation-filters="sRGB">
<feFlood flood-opacity="0" result="BackgroundImageFix"/>
<feBlend mode="normal" in="SourceGraphic" in2="BackgroundImageFix" result="shape"/>
<feGaussianBlur stdDeviation="2" result="effect1_foregroundBlur"/>
</filter>
<filter id="filter1_f" x="154" y="108" width="121" height="121" filterUnits="userSpaceOnUse" color-interpolation-filters="sRGB">
<feFlood flood-opacity="0" result="BackgroundImageFix"/>
<feBlend mode="normal" in="SourceGraphic" in2="BackgroundImageFix" result="shape"/>
<feGaussianBlur stdDeviation="2" result="effect1_foregroundBlur"/>
</filter>
<radialGradient id="paint0_radial" cx="0" cy="0" r="1" gradientUnits="userSpaceOnUse" gradientTransform="translate(119.665 87.0631) scale(200.563)">
<stop stop-color="#F7E135"/>
<stop offset="0.5" stop-color="#FCBC27"/>
<stop offset="1" stop-color="#FF7E2C"/>
</radialGradient>
<radialGradient id="paint1_radiall" cx="0" cy="0" r="1" gradientUnits="userSpaceOnUse" gradientTransform="translate(87.5 168.5) rotate(90) scale(56.5)">
<stop stop-color="#FF0000" stop-opacity="0.4"/>
<stop offset="1" stop-color="#FF0000" stop-opacity="0"/>
</radialGradient>
<radialGradient id="paint2_radial" cx="0" cy="0" r="1" gradientUnits="userSpaceOnUse" gradientTransform="translate(214.5 168.5) rotate(90) scale(56.5)">
<stop stop-color="#FF0000" stop-opacity="0.4"/>
<stop offset="1" stop-color="#FF0000" stop-opacity="0"/>
</radialGradient>
<radialGradient id="paint3_radial" cx="0" cy="0" r="1" gradientUnits="userSpaceOnUse" gradientTransform="translate(35.1384 -27.7998) scale(222.199 191.536)">
<stop stop-color="white"/>
<stop offset="1"/>
</radialGradient>
<radialGradient id="paint4_radial" cx="0" cy="0" r="1" gradientUnits="userSpaceOnUse" gradientTransform="translate(150.896 275.608) scale(202.193 101.308)">
<stop stop-color="#372396"/>
<stop offset="1"/>
</radialGradient>
<linearGradient id="paint5_linear" x1="183" y1="147" x2="183" y2="18" gradientUnits="userSpaceOnUse">
<stop stop-color="#FF0011"/>
<stop offset="1" stop-color="#FF4D00"/>
</linearGradient>
</defs>
</svg>
